<svg xmlns="http://www.w3.org/2000/svg" width="139" height="22" viewBox="0 0 139 22"><g><g><path fill="#302d32" d="M17.64 21.513h-4.395v-9.14h-8.57v9.14H.281V.185h4.394v8.643h8.57V.185h4.394zm21.357-10.18c0 2.1-.372 3.94-1.114 5.522-.742 1.582-1.804 2.803-3.186 3.662-1.382.86-2.966 1.29-4.753 1.29-1.768 0-3.345-.425-4.731-1.275-1.387-.85-2.461-2.063-3.223-3.64-.762-1.578-1.148-3.392-1.157-5.442v-1.055c0-2.1.378-3.948 1.135-5.544.757-1.597 1.826-2.822 3.208-3.677 1.382-.855 2.961-1.282 4.739-1.282 1.777 0 3.356.427 4.738 1.282 1.382.855 2.452 2.08 3.208 3.677.757 1.596 1.136 3.44 1.136 5.53zm-4.453-.967c0-2.236-.401-3.936-1.202-5.098-.8-1.162-1.943-1.743-3.427-1.743-1.475 0-2.613.574-3.413 1.721-.801 1.148-1.207 2.83-1.216 5.047v1.04c0 2.177.4 3.867 1.2 5.068.802 1.201 1.954 1.802 3.458 1.802 1.474 0 2.607-.579 3.398-1.736.791-1.157 1.192-2.844 1.202-5.061zM47.932.186l5.479 15.468L58.86.185h5.771v21.328h-4.409v-5.83l.44-10.063-5.757 15.893h-3.018L46.145 5.634l.44 10.05v5.83H42.19V.184zm33.37 12.084h-8.438v5.713h9.902v3.53H68.47V.185h14.268v3.56h-9.873v5.083H81.3zm16.874.527H89.74v8.716h-4.395V.185h13.887v3.56H89.74v5.508h8.437zm21.123-1.464c0 2.1-.37 3.94-1.113 5.522-.742 1.582-1.804 2.803-3.186 3.662-1.382.86-2.966 1.29-4.753 1.29-1.768 0-3.345-.425-4.732-1.275-1.387-.85-2.46-2.063-3.222-3.64-.762-1.578-1.148-3.392-1.158-5.442v-1.055c0-2.1.379-3.948 1.136-5.544.756-1.597 1.826-2.822 3.208-3.677 1.381-.855 2.96-1.282 4.738-1.282 1.778 0 3.357.427 4.74 1.282 1.38.855 2.45 2.08 3.207 3.677.757 1.596 1.135 3.44 1.135 5.53zm-4.453-.967c0-2.236-.4-3.936-1.2-5.098-.802-1.162-1.944-1.743-3.429-1.743-1.474 0-2.612.574-3.413 1.721-.8 1.148-1.206 2.83-1.215 5.047v1.04c0 2.177.4 3.867 1.2 5.068.801 1.201 1.954 1.802 3.458 1.802 1.474 0 2.607-.579 3.398-1.736.791-1.157 1.191-2.844 1.201-5.061zm15.542 3.34h-3.5v7.807h-4.395V.185h7.925c2.52 0 4.462.562 5.83 1.685 1.367 1.123 2.05 2.71 2.05 4.76 0 1.456-.314 2.669-.944 3.64-.63.972-1.585 1.746-2.864 2.322l4.614 8.716v.205h-4.717zm-3.5-3.56h3.544c1.104 0 1.958-.28 2.564-.842.605-.562.908-1.336.908-2.322 0-1.006-.286-1.797-.857-2.373-.571-.576-1.448-.864-2.63-.864h-3.53z"/></g></g></svg>